<svg width="87" height="29" viewBox="0 0 87 29" fill="none" xmlns="http://www.w3.org/2000/svg">
<path d="M19.42 13.6581C19.377 12.7103 19.3123 11.7624 19.3123 10.8145C19.3123 9.6297 19.4057 8.45204 19.2836 7.2672C19.1185 5.70896 19.9227 5.23503 21.2224 5.2063C24.2599 5.14168 27.2974 5.14168 30.3349 5.07705C31.3115 5.05551 31.649 5.53662 31.5126 6.38396C31.3833 7.17385 31.7352 8.35151 30.3206 8.32279C28.4751 8.29406 26.6296 8.20071 24.7913 8.093C23.5203 8.02119 22.5365 8.15045 22.5509 9.80204C22.5653 11.2382 22.8453 12.2651 24.6118 12.1861C26.0408 12.1214 27.4698 12.1789 28.8988 12.1286C29.8466 12.0999 30.4642 12.2148 30.4785 13.4284C30.4929 14.6276 30.1626 15.1518 28.8988 15.1302C27.4698 15.1087 26.0408 15.2523 24.619 15.2954C23.348 15.3385 22.6083 15.8555 22.6083 17.227C22.6083 18.6488 23.348 19.2879 24.698 19.2951C26.4214 19.3095 28.1591 19.3597 29.8753 19.2448C31.3977 19.1371 31.4264 20.085 31.5557 21.1334C31.7208 22.4331 30.8807 22.4403 30.0046 22.4547C27.2687 22.4834 24.5256 22.548 21.7897 22.5121C19.7863 22.4906 19.4703 22.0813 19.4775 20.0275C19.4775 18.4621 19.4775 16.8967 19.4775 15.3241C19.4775 14.764 19.456 14.2039 19.4272 13.6366L19.42 13.6581Z" fill="#F2F2F2" style="fill:#F2F2F2;fill:color(display-p3 0.9490 0.9490 0.9490);fill-opacity:1;"/>
<path d="M50.4233 15.3555C50.4951 12.397 50.5454 9.44568 50.251 6.48718C49.9996 3.93798 50.4305 3.51431 53.073 3.43532C54.9185 3.37788 56.764 3.4066 58.6023 3.30607C59.8518 3.24144 60.1103 3.90926 60.1246 4.93612C60.1462 6.00606 59.7943 6.64515 58.6023 6.60925C57.7119 6.58771 56.8143 6.57335 55.9238 6.63797C54.3584 6.75287 53.5901 7.61457 53.5757 9.18717C53.5542 11.0614 54.0425 11.5856 55.9741 11.6143C56.3331 11.6143 56.6994 11.6646 57.044 11.5999C58.8177 11.2481 58.8895 12.2677 58.9542 13.6249C59.026 15.1832 58.1858 15.2406 57.0656 15.1616C56.6491 15.1329 56.2326 15.1688 55.8161 15.1401C54.4015 15.0324 53.6619 15.6068 53.748 17.0789C53.8055 18.0842 53.8917 19.0824 53.8917 20.0877C53.8917 21.8685 54.9401 22.2922 56.4696 22.1342C57.0584 22.0768 57.6544 22.0409 58.2432 21.9547C59.6148 21.768 59.9738 22.5579 60.1246 23.714C60.297 25.0209 59.5286 25.1645 58.5377 25.2579C56.6347 25.4302 54.739 25.4948 52.8289 25.4087C51.1199 25.3297 50.3802 24.468 50.3946 22.8092C50.4161 20.3246 50.3946 17.8401 50.3946 15.3555H50.4233Z" fill="#F2F2F2" style="fill:#F2F2F2;fill:color(display-p3 0.9490 0.9490 0.9490);fill-opacity:1;"/>
<path d="M34.2346 14.0705C34.4931 7.79445 38.8806 2.84685 45.2572 1.68356C46.004 1.54712 47.1099 1.10909 47.2391 2.39446C47.3612 3.56494 47.6771 4.97238 46.0902 5.57557C45.4295 5.8269 44.7186 5.95615 44.0436 6.19312C40.0008 7.60056 37.825 10.6811 37.8322 14.9537C37.8394 17.8404 39.5556 19.4777 42.4495 19.2981C43.2178 19.2479 43.979 19.054 44.7402 18.9606C46.1189 18.7883 46.6718 19.6356 46.916 20.7918C47.1601 21.9479 46.4205 22.3356 45.4798 22.6372C39.2109 24.6263 33.9617 20.6338 34.2274 14.0705H34.2346Z" fill="#F2F2F2" style="fill:#F2F2F2;fill:color(display-p3 0.9490 0.9490 0.9490);fill-opacity:1;"/>
<path d="M65.8102 26.3053C64.8982 26.2119 63.6415 26.2838 63.0024 25.1707C62.4854 24.2803 62.8517 23.354 63.4405 22.521C63.9144 21.8532 64.4243 21.5803 65.2501 21.8747C66.3774 22.2697 67.512 22.2769 68.3737 21.3003C69.2426 20.3165 68.6825 19.2753 68.3019 18.3059C67.4474 16.1085 66.3344 14.0117 65.8461 11.6779C64.7761 6.57237 68.3163 2.28541 73.3931 2.48647C75.1524 2.5511 74.7862 3.77184 74.8795 4.73407C74.9729 5.71785 74.9298 6.70162 73.4577 6.57955C72.9264 6.53646 72.3878 6.57955 71.8564 6.65136C69.975 6.88832 69.3144 7.65667 69.2426 9.57396C69.1708 11.5559 70.1258 13.2146 70.8583 14.9524C71.2963 15.9864 71.7918 16.9989 72.1293 18.0617C73.587 22.5856 70.8367 26.2838 65.8173 26.3125L65.8102 26.3053Z" fill="#F2F2F2" style="fill:#F2F2F2;fill:color(display-p3 0.9490 0.9490 0.9490);fill-opacity:1;"/>
<path d="M85.1739 3.37456C86.8255 2.98679 86.8829 4.21472 86.9834 5.47854C87.0912 6.86444 86.689 7.482 85.1164 7.47481C81.7486 7.46045 80.5925 8.96125 81.5691 12.2429C82.2728 14.6054 83.4936 16.8099 84.2547 19.158C85.7842 23.9117 81.9281 28.0551 76.9805 27.0929C74.8119 26.6692 74.2303 25.0966 75.5587 23.3373C76.0614 22.6623 76.5856 22.4828 77.3898 22.7628C78.4526 23.1362 79.5297 23.1219 80.3771 22.253C81.3106 21.3051 80.8079 20.2495 80.4273 19.2729C79.5513 17.0181 78.4023 14.8783 77.9069 12.4799C76.8944 7.56098 80.0827 3.44637 85.1667 3.37456H85.1739Z" fill="#F2F2F2" style="fill:#F2F2F2;fill:color(display-p3 0.9490 0.9490 0.9490);fill-opacity:1;"/>
<path d="M34.6996 25.5024C34.4339 24.0304 33.4932 24.1237 32.4232 24.3894C28.2943 25.4378 24.115 25.9835 19.864 25.3588C16.0653 24.7987 12.5754 23.5421 10.1124 20.3897C8.65469 18.5227 8.84139 17.4886 10.7228 16.1243C13.0709 14.4224 14.6291 12.1892 15.4119 9.41018C16.4603 5.67614 14.8446 2.31551 11.2541 0.900889C8.86293 -0.0398007 6.34246 0.132539 3.84353 0.161263C2.34992 0.175624 1.79699 0.908069 1.6821 2.3586C1.11481 9.49635 0.942472 16.6628 0.152581 23.3195C0.0879531 24.7341 0.0305065 25.6748 0.00178314 26.6226C-0.0556635 28.3029 1.28715 27.9655 2.26375 28.1737C3.4414 28.425 3.71427 27.7285 3.7789 26.7878C3.90816 24.8346 4.02305 22.8886 4.15231 20.9354C4.18821 20.3681 4.02305 19.6357 4.73395 19.3987C5.5023 19.1474 5.71773 19.9157 6.0265 20.3681C7.55602 22.6014 9.41586 24.4899 11.8214 25.7968C19.0454 29.7248 26.5134 28.8631 34.0246 26.8452C34.7786 26.6442 34.8288 26.1918 34.7068 25.4952L34.6996 25.5024ZM6.29937 14.3147C5.30842 14.5876 4.8273 14.2501 4.83448 13.2088C4.84885 12.2394 4.8273 11.27 4.8273 10.3078C4.8273 9.34555 5.13608 8.47667 5.13608 7.54316C5.13608 6.65992 5.19353 5.77667 5.24379 4.89343C5.28688 4.08918 5.58847 3.45008 6.4789 3.47881C8.02995 3.52189 9.55229 3.76604 10.8951 4.63492C11.9076 5.29556 12.1733 6.25779 12.0728 7.40672C11.843 10.0205 8.84139 13.6181 6.29219 14.3219L6.29937 14.3147Z" fill="#F2F2F2" style="fill:#F2F2F2;fill:color(display-p3 0.9490 0.9490 0.9490);fill-opacity:1;"/>
</svg>
